<svg aria-hidden="true" style="position: absolute; width: 0; height: 0; overflow: hidden;" version="1.1" xmlns="http://www.w3.org/2000/svg" xmlns:xlink="http://www.w3.org/1999/xlink">



<defs>


<symbol id="icon-adobe" viewBox="0 0 32 32">
<path fill="#f00" style="fill: var(--color1, #f00)" d="M20.133 2.667h11.867v26.667zM11.867 2.667h-11.867v26.667zM16 12.533l7.467 16.8h-5.067l-2.133-5.333h-5.467z"></path>
</symbol>



<symbol id="icon-adobecreativecloud" viewBox="0 0 32 32">
<path fill="#d41818" style="fill: var(--color2, #d41818)" d="M32 15.465v1.071c-0.011 0.059-0.023 0.116-0.029 0.173-0.053 0.467-0.089 0.935-0.165 1.397-0.265 1.579-0.814 2.99-1.596 4.241l0.028-0.049c-1.173 1.925-2.825 3.455-4.793 4.449l-0.067 0.031c-1.089 0.561-2.356 0.958-3.696 1.119l-0.054 0.005c-0.289 0.035-0.58 0.065-0.869 0.097h-11.241c-0.057-0.011-0.113-0.027-0.171-0.032-1.196-0.075-2.308-0.361-3.323-0.821l0.059 0.024c-2.263-1.007-3.951-2.64-5.055-4.885-0.463-0.918-0.792-1.986-0.929-3.113l-0.005-0.047-0.095-0.803v-1.040c0.011-0.057 0.027-0.115 0.031-0.173 0.061-1.057 0.281-2.046 0.637-2.966l-0.023 0.066c0.955-2.507 2.621-4.368 4.984-5.572 1.135-0.587 2.469-0.959 3.882-1.026l0.022-0.001c0.15-0.008 0.325-0.012 0.501-0.012 0.53 0 1.051 0.039 1.561 0.113l-0.058-0.007c0.007 0.001 0.014 0.001 0.022 0.001 0.064 0 0.123-0.024 0.167-0.064l-0 0c0.926-0.966 2.009-1.773 3.21-2.382l0.068-0.031c1.094-0.563 2.367-0.962 3.712-1.125l0.054-0.005c0.312-0.036 0.623-0.067 0.933-0.099h0.96c0.061 0.009 0.125 0.021 0.187 0.028 0.476 0.057 0.953 0.093 1.424 0.173 1.546 0.272 2.925 0.825 4.142 1.608l-0.044-0.027c1.912 1.205 3.425 2.886 4.394 4.88l0.031 0.070c0.553 1.11 0.945 2.4 1.102 3.762l0.005 0.054c0.035 0.305 0.064 0.611 0.096 0.916zM14.107 8.532c0.020 0.027 0.025 0.039 0.033 0.043 0.657 0.329 1.287 0.717 1.88 1.156 0.037 0.027 0.131 0.016 0.176-0.013 1.629-1.049 3.396-1.412 5.293-1.069 1.86 0.335 3.373 1.28 4.529 2.789 1.309 1.707 1.809 3.64 1.448 5.787-0.243 1.44-0.811 2.733-1.773 3.815-1.76 1.973-3.964 2.789-6.557 2.444-1.596-0.213-2.973-0.913-4.115-2.085-1.464-1.504-2.939-2.997-4.407-4.497-0.196-0.2-0.413-0.36-0.695-0.396-0.044-0.006-0.095-0.010-0.147-0.010-0.445 0-0.828 0.264-1.002 0.643l-0.003 0.007c-0.189 0.4-0.165 0.853 0.247 1.264 1.636 1.635 3.259 3.283 4.893 4.92 0.28 0.28 0.58 0.54 0.899 0.776 1.195 0.881 2.541 1.369 4 1.565 1.144 0.155 2.28 0.12 3.407-0.136 2.149-0.492 3.931-1.607 5.333-3.329 1.105-1.342 1.859-3.013 2.096-4.845l0.005-0.048c0.056-0.393 0.088-0.847 0.088-1.308 0-0.65-0.064-1.286-0.185-1.9l0.010 0.062c-0.325-1.693-1.031-3.211-2.16-4.503-2.157-2.461-4.871-3.56-8.099-3.316-1.306 0.111-2.503 0.488-3.567 1.076l0.046-0.023c-0.636 0.339-1.184 0.715-1.686 1.144l0.013-0.011zM13.317 25.72c-0.056-0.052-0.099-0.093-0.142-0.134l0.009 0.009c-0.668-0.643-1.341-1.28-2.003-1.932-0.099-0.113-0.243-0.183-0.404-0.183-0.008 0-0.016 0-0.024 0l0.001-0c-0.669 0.016-1.34 0.019-2-0.133-3.281-0.753-5.187-4.381-3.977-7.573 0.953-2.519 3.595-4.051 6.199-3.579 1.167 0.212 2.192 0.715 3.032 1.596 1.027 1.077 2.083 2.123 3.12 3.188 0.235 0.243 0.507 0.353 0.833 0.307 0.421-0.061 0.759-0.267 0.911-0.688 0.149-0.413 0.077-0.807-0.231-1.125-1.088-1.12-2.151-2.269-3.283-3.343-2.196-2.081-4.784-2.701-7.648-1.816-3.851 1.191-6.105 5.235-5.225 9.225 0.803 3.636 3.929 6.187 7.588 6.191h3.065c0.051 0 0.101-0.005 0.179-0.009z"></path>
</symbol>
<symbol id="icon-adobephotoshop" viewBox="0 0 32 32">
<path fill="#00c8ff" style="fill: var(--color3, #00c8ff)" d="M0 0.4v31.2h32v-31.2zM1.333 1.733h29.333v28.533h-29.333zM7.733 7.707c0-0.089 0.187-0.155 0.299-0.155 0.859-0.044 2.117-0.067 3.437-0.067 3.696 0 5.133 2.027 5.133 4.621 0 3.387-2.456 4.84-5.469 4.84-0.507 0-0.68-0.023-1.033-0.023v5.123c0 0.111-0.044 0.155-0.153 0.155h-2.059c-0.111 0-0.153-0.040-0.153-0.151zM10.1 14.789c0.307 0.021 0.549 0.021 1.080 0.021 1.56 0 3.027-0.549 3.027-2.661 0-1.693-1.048-2.552-2.829-2.552-0.528 0-1.033 0.021-1.276 0.044zM21.576 13.205c-1.056 0-1.408 0.528-1.408 0.968 0 0.484 0.24 0.813 1.649 1.54 2.091 1.013 2.749 1.98 2.749 3.409 0 2.133-1.627 3.28-3.827 3.28-1.168 0-2.16-0.244-2.733-0.573-0.087-0.044-0.107-0.109-0.107-0.22v-1.956c0-0.133 0.064-0.177 0.152-0.112 0.832 0.551 1.803 0.792 2.683 0.792 1.056 0 1.496-0.44 1.496-1.035 0-0.484-0.307-0.903-1.649-1.607-1.893-0.907-2.685-1.827-2.685-3.369 0-1.716 1.341-3.147 3.673-3.147 1.147 0 1.952 0.176 2.392 0.373 0.109 0.067 0.133 0.176 0.133 0.264v1.827c0 0.111-0.067 0.177-0.2 0.133-0.592-0.352-1.467-0.573-2.319-0.568z"></path>
</symbol>
<symbol id="icon-applepay" viewBox="0 0 32 32">
<path d="M5.851 11.045c-0.376 0.449-0.976 0.803-1.576 0.752-0.075-0.607 0.219-1.251 0.563-1.649 0.376-0.461 1.032-0.788 1.563-0.815 0.063 0.632-0.181 1.251-0.549 1.712zM6.393 11.917c-0.868-0.051-1.613 0.5-2.024 0.5-0.42 0-1.051-0.475-1.739-0.461-0.893 0.013-1.724 0.524-2.18 1.34-0.939 1.629-0.244 4.044 0.661 5.371 0.444 0.657 0.976 1.377 1.676 1.352 0.661-0.025 0.924-0.436 1.724-0.436 0.807 0 1.037 0.436 1.739 0.424 0.724-0.013 1.18-0.657 1.624-1.315 0.507-0.747 0.713-1.472 0.725-1.511-0.013-0.013-1.4-0.549-1.413-2.167-0.012-1.353 1.093-1.997 1.144-2.035-0.624-0.936-1.6-1.037-1.937-1.063zM11.413 10.085v9.852h1.513v-3.368h2.093c1.912 0 3.256-1.328 3.256-3.248 0-1.921-1.319-3.236-3.205-3.236zM12.927 11.375h1.744c1.312 0 2.061 0.707 2.061 1.952s-0.749 1.96-2.068 1.96h-1.739zM21.039 20.012c0.951 0 1.832-0.485 2.232-1.257h0.031v1.183h1.4v-4.904c0-1.421-1.125-2.339-2.856-2.339-1.607 0-2.793 0.929-2.837 2.205h1.363c0.112-0.607 0.668-1.004 1.431-1.004 0.925 0 1.444 0.436 1.444 1.239v0.543l-1.888 0.115c-1.756 0.107-2.707 0.833-2.707 2.097 0 1.276 0.981 2.123 2.388 2.123zM21.445 18.844c-0.807 0-1.32-0.392-1.32-0.992 0-0.62 0.495-0.98 1.439-1.037l1.68-0.107v0.556c0 0.923-0.773 1.58-1.799 1.58zM26.571 22.617c1.475 0 2.168-0.569 2.773-2.295l2.656-7.533h-1.537l-1.781 5.82h-0.031l-1.781-5.82h-1.581l2.561 7.173-0.137 0.436c-0.231 0.739-0.605 1.023-1.275 1.023-0.119 0-0.349-0.013-0.444-0.025v1.183c0.088 0.025 0.463 0.037 0.577 0.039z"></path>
</symbol>
<symbol id="icon-bootstrap" viewBox="0 0 32 32">
<path fill="#563d7c" style="fill: var(--color4, #563d7c)" d="M26.667 0h-21.333c-2.943 0.008-5.325 2.391-5.333 5.333v21.333c0 2.933 2.4 5.333 5.333 5.333h21.333c2.933 0 5.333-2.4 5.333-5.333v-21.333c0-2.933-2.4-5.333-5.333-5.333zM23.751 22.473c-0.267 0.643-0.689 1.209-1.231 1.645-0.56 0.453-1.269 0.827-2.143 1.093-0.872 0.271-1.909 0.407-3.111 0.407h-8.576v-18.667h9.069c1.677 0 3.021 0.377 4.027 1.147 1.013 0.773 1.517 1.925 1.517 3.48 0 0.94-0.229 1.747-0.691 2.413-0.459 0.663-1.12 1.181-1.973 1.541v0.061c1.139 0.24 2.020 0.78 2.6 1.62s0.877 1.901 0.877 3.183c0 0.717-0.139 1.4-0.4 2.037zM20.049 17.873c-0.547-0.5-1.315-0.744-2.307-0.744h-5.763v5.824h5.779c0.987 0 1.76-0.256 2.307-0.773 0.547-0.513 0.827-1.245 0.827-2.187-0.009-0.92-0.28-1.632-0.827-2.12zM19.249 14.109c0.528-0.448 0.787-1.089 0.787-1.925 0-0.939-0.233-1.605-0.707-1.987-0.469-0.38-1.147-0.577-2.037-0.577h-5.333v5.151h5.333c0.777 0 1.44-0.227 1.957-0.661z"></path>
</symbol>
<symbol id="icon-play" viewBox="0 0 32 32">
<path d="M30.662 5.003c-4.488-0.645-9.448-1.003-14.662-1.003s-10.174 0.358-14.662 1.003c-0.86 3.366-1.338 7.086-1.338 10.997s0.477 7.63 1.338 10.997c4.489 0.645 9.448 1.003 14.662 1.003s10.174-0.358 14.662-1.003c0.86-3.366 1.338-7.086 1.338-10.997s-0.477-7.63-1.338-10.997zM12 22v-12l10 6-10 6z"></path>
</symbol>
<symbol id="icon-qrcode" viewBox="0 0 32 32">
<path d="M10 2h-8v8h8v-8zM12 0v0 12h-12v-12h12zM4 4h4v4h-4zM30 2h-8v8h8v-8zM32 0v0 12h-12v-12h12zM24 4h4v4h-4zM10 22h-8v8h8v-8zM12 20v0 12h-12v-12h12zM4 24h4v4h-4zM14 0h2v2h-2zM16 2h2v2h-2zM14 4h2v2h-2zM16 6h2v2h-2zM14 8h2v2h-2zM16 10h2v2h-2zM14 12h2v2h-2zM14 16h2v2h-2zM16 18h2v2h-2zM14 20h2v2h-2zM16 22h2v2h-2zM14 24h2v2h-2zM16 26h2v2h-2zM14 28h2v2h-2zM16 30h2v2h-2zM30 16h2v2h-2zM2 16h2v2h-2zM4 14h2v2h-2zM0 14h2v2h-2zM8 14h2v2h-2zM10 16h2v2h-2zM12 14h2v2h-2zM18 16h2v2h-2zM20 14h2v2h-2zM22 16h2v2h-2zM24 14h2v2h-2zM26 16h2v2h-2zM28 14h2v2h-2zM30 20h2v2h-2zM18 20h2v2h-2zM20 18h2v2h-2zM22 20h2v2h-2zM26 20h2v2h-2zM28 18h2v2h-2zM30 24h2v2h-2zM18 24h2v2h-2zM20 22h2v2h-2zM24 22h2v2h-2zM26 24h2v2h-2zM28 22h2v2h-2zM30 28h2v2h-2zM20 26h2v2h-2zM22 28h2v2h-2zM24 26h2v2h-2zM26 28h2v2h-2zM20 30h2v2h-2zM24 30h2v2h-2zM28 30h2v2h-2z"></path>
</symbol>
<symbol id="icon-bubbles" viewBox="0 0 36 32">
<path d="M34 28.161c0 1.422 0.813 2.653 2 3.256v0.498c-0.332 0.045-0.671 0.070-1.016 0.070-2.125 0-4.042-0.892-5.398-2.321-0.819 0.218-1.688 0.336-2.587 0.336-4.971 0-9-3.582-9-8s4.029-8 9-8c4.971 0 9 3.582 9 8 0 1.73-0.618 3.331-1.667 4.64-0.213 0.463-0.333 0.979-0.333 1.522zM16 0c8.702 0 15.781 5.644 15.995 12.672-1.537-0.685-3.237-1.047-4.995-1.047-2.986 0-5.807 1.045-7.942 2.943-2.214 1.968-3.433 4.607-3.433 7.432 0 1.396 0.298 2.747 0.867 3.993-0.163 0.004-0.327 0.007-0.492 0.007-0.849 0-1.682-0.054-2.495-0.158-3.437 3.437-7.539 4.053-11.505 4.144v-0.841c2.142-1.049 4-2.961 4-5.145 0-0.305-0.024-0.604-0.068-0.897-3.619-2.383-5.932-6.024-5.932-10.103 0-7.18 7.163-13 16-13z"></path>
</symbol>

</defs>


</svg>
